<svg xmlns="http://www.w3.org/2000/svg" xmlns:xlink="http://www.w3.org/1999/xlink" width="0" height="0">
    <symbol id="arrow_back" width="24" height="24" viewBox="0 0 24 24" fill="none">
        <path
            d="M12.0078 4.68652C12.0934 4.68658 12.1668 4.71285 12.249 4.79492C12.3313 4.88086 12.3574 4.95797 12.3574 5.04395C12.3573 5.13078 12.3308 5.20478 12.249 5.28711L5.8877 11.6484H19.2979C19.4194 11.6485 19.4945 11.6838 19.5586 11.7471C19.6207 11.8084 19.6553 11.8801 19.6553 12C19.6553 12.1199 19.6207 12.1916 19.5586 12.2529C19.4945 12.3162 19.4194 12.3515 19.2979 12.3516H5.8877L12.2432 18.707V18.7061C12.3254 18.7885 12.3537 18.8653 12.3545 18.957V18.958C12.355 19.0245 12.3404 19.0829 12.2988 19.1426L12.2471 19.2041C12.1671 19.2851 12.0939 19.3113 12.0049 19.3105C11.9104 19.3096 11.8321 19.2796 11.749 19.1973L4.80078 12.249C4.74762 12.1949 4.72192 12.1527 4.70996 12.124V12.123C4.69485 12.0867 4.68652 12.0466 4.68652 11.999C4.68655 11.9514 4.69516 11.9123 4.70996 11.877V11.876C4.72183 11.8475 4.74729 11.8051 4.80078 11.751L11.751 4.80078C11.8414 4.71356 11.9211 4.68652 12.0078 4.68652Z"
            fill="black" stroke="black" />
    </symbol>

    <symbol id="arrow_forward" width="24" height="24" viewBox="0 0 24 24" fill="none">
        <path
            d="M11.9951 4.68945C12.0661 4.69012 12.1279 4.70677 12.1895 4.75L12.251 4.80273L19.1992 11.751C19.2524 11.8051 19.2781 11.8473 19.29 11.876V11.877C19.3052 11.9133 19.3135 11.9534 19.3135 12.001C19.3134 12.0486 19.3048 12.0877 19.29 12.123V12.124C19.2782 12.1525 19.2527 12.1948 19.1992 12.249L12.2451 19.1973C12.1538 19.2875 12.0752 19.3135 11.9922 19.3135C11.9115 19.3134 11.8393 19.2889 11.7559 19.2031L11.751 19.1982L11.6992 19.1377C11.6571 19.0781 11.6426 19.02 11.6426 18.9551C11.6426 18.8904 11.6573 18.8328 11.6992 18.7734L11.751 18.7129L18.1123 12.3516H4.70215C4.58005 12.3515 4.50781 12.3164 4.44727 12.2559H4.44629C4.38542 12.195 4.35059 12.122 4.35059 12C4.35059 11.878 4.38542 11.805 4.44629 11.7441H4.44727C4.50782 11.6836 4.58005 11.6485 4.70215 11.6484H18.1123L11.7568 5.29297C11.6955 5.23162 11.6637 5.17322 11.6514 5.1084L11.6455 5.04102C11.6446 4.95107 11.6708 4.87748 11.751 4.79688L11.752 4.7959C11.8321 4.71531 11.9055 4.68868 11.9951 4.68945Z"
            fill="black" stroke="black" />
    </symbol>

    <symbol id="chevron_left" width="24" height="24" viewBox="0 0 24 24" fill="none">
        <path
            d="M14.0371 6.64844C14.1379 6.64844 14.2149 6.67885 14.293 6.75684C14.3711 6.83496 14.4014 6.91179 14.4014 7.0127C14.4014 7.1136 14.3711 7.19043 14.293 7.26855L9.58594 11.9756L9.93945 12.3291L14.293 16.6816C14.3707 16.7594 14.3926 16.8265 14.3896 16.9072C14.3861 17.0012 14.3542 17.0822 14.2686 17.168C14.1905 17.246 14.1135 17.2773 14.0127 17.2773C13.9118 17.2773 13.835 17.2461 13.7568 17.168L8.8125 12.2246C8.78534 12.1974 8.76548 12.1732 8.75098 12.1523L8.72168 12.0996C8.70687 12.0641 8.69829 12.0242 8.69824 11.9756C8.69824 11.9513 8.70011 11.9287 8.7041 11.9082L8.72168 11.8506C8.73339 11.8224 8.75834 11.7798 8.8125 11.7256L13.7822 6.75684C13.8602 6.67903 13.9365 6.64851 14.0371 6.64844Z"
            fill="black" stroke="black" />
    </symbol>

    <symbol id="chevron_right" width="24" height="24" viewBox="0 0 24 24" fill="none">
        <path
            d="M9.38672 6.67285C9.48754 6.67285 9.56452 6.70326 9.64258 6.78125L14.5869 11.7256C14.6408 11.7795 14.666 11.8215 14.6777 11.8496V11.8506C14.6925 11.8861 14.7012 11.9259 14.7012 11.9746C14.7012 12.0233 14.6925 12.0631 14.6777 12.0986V12.0996C14.666 12.1277 14.6408 12.1697 14.5869 12.2236L9.61816 17.1924C9.54039 17.2702 9.47325 17.292 9.39258 17.2891C9.29855 17.2856 9.21769 17.2537 9.13184 17.168C9.05371 17.0898 9.02246 17.013 9.02246 16.9121C9.02246 16.8112 9.05371 16.7344 9.13184 16.6562L13.8135 11.9746L9.10645 7.26758C9.02878 7.18988 9.00684 7.12357 9.00977 7.04297C9.01321 6.9487 9.04578 6.86731 9.13184 6.78125C9.20976 6.70344 9.28613 6.67293 9.38672 6.67285Z"
            fill="black" stroke="black" />
    </symbol>

    <symbol id="close" width="24" height="24" viewBox="0 0 24 24" fill="none">
        <path
            d="M17.5996 5.92499C17.7639 5.92499 17.8659 5.97349 17.9463 6.05389C18.0265 6.1342 18.0751 6.23569 18.0752 6.3996C18.0752 6.5638 18.0266 6.66589 17.9463 6.74628L12.6924 12.0002L13.0459 12.3537L17.9463 17.2531C18.0267 17.3335 18.0752 17.4356 18.0752 17.5998C18.0752 17.7641 18.0267 17.8661 17.9463 17.9465C17.8659 18.0269 17.7639 18.0754 17.5996 18.0754C17.4355 18.0753 17.3333 18.0268 17.2529 17.9465L12.3535 13.0461L12 12.6926L6.74609 17.9465C6.66571 18.0268 6.56362 18.0754 6.39941 18.0754C6.23551 18.0753 6.13402 18.0267 6.05371 17.9465C5.97331 17.8661 5.9248 17.7641 5.9248 17.5998C5.92484 17.4356 5.97334 17.3335 6.05371 17.2531L11.3066 12.0002L10.9531 11.6467L6.05371 6.74628C5.97331 6.66587 5.9248 6.56387 5.9248 6.3996C5.92488 6.23556 5.97337 6.13423 6.05371 6.05389C6.13405 5.97356 6.23537 5.92506 6.39941 5.92499C6.56368 5.92499 6.66569 5.97349 6.74609 6.05389L11.6465 10.9533L12 11.3068L17.2529 6.05389C17.3333 5.97352 17.4355 5.92503 17.5996 5.92499Z"
            fill="black" stroke="black" />
    </symbol>

    <symbol id="delete" width="24" height="24" viewBox="0 0 24 24" fill="none">
        <path
            d="M6.47711 21.1495C6.00295 21.1495 5.59953 20.9837 5.26686 20.6523C4.9342 20.3207 4.76786 19.9187 4.76786 19.4462V5.29775H4.49286C4.25236 5.29775 4.05028 5.2155 3.88661 5.051C3.72295 4.8865 3.64111 4.68342 3.64111 4.44175C3.64111 4.20008 3.72295 3.9985 3.88661 3.837C4.05028 3.67533 4.25236 3.5945 4.49286 3.5945H8.59811C8.59811 3.35 8.68003 3.14592 8.84386 2.98225C9.00753 2.81875 9.20953 2.737 9.44986 2.737H14.5439C14.7842 2.737 14.9863 2.81992 15.1501 2.98575C15.3138 3.15175 15.3956 3.35467 15.3956 3.5945H19.5069C19.7474 3.5945 19.9494 3.67675 20.1131 3.84125C20.2768 4.00575 20.3586 4.20883 20.3586 4.4505C20.3586 4.69217 20.2768 4.89383 20.1131 5.0555C19.9494 5.217 19.7474 5.29775 19.5069 5.29775H19.2319V19.4462C19.2319 19.9187 19.0655 20.3207 18.7329 20.6523C18.4002 20.9837 17.9968 21.1495 17.5226 21.1495H6.47711ZM17.5226 5.29775H6.47711V19.4462H17.5226V5.29775ZM9.90236 17.344C10.13 17.344 10.3197 17.2669 10.4714 17.1128C10.623 16.9584 10.6989 16.7696 10.6989 16.5462V8.16675C10.6989 7.94342 10.6213 7.75467 10.4661 7.6005C10.3109 7.44617 10.1211 7.369 9.89661 7.369C9.66695 7.369 9.47628 7.44617 9.32461 7.6005C9.17295 7.75467 9.09711 7.94342 9.09711 8.16675V16.5462C9.09711 16.7696 9.17436 16.9584 9.32886 17.1128C9.48353 17.2669 9.6747 17.344 9.90236 17.344ZM14.1104 17.344C14.3352 17.344 14.5244 17.2669 14.6781 17.1128C14.8318 16.9584 14.9086 16.7696 14.9086 16.5462V8.16675C14.9086 7.94342 14.8305 7.75467 14.6744 7.6005C14.5182 7.44617 14.3271 7.369 14.1011 7.369C13.8749 7.369 13.685 7.44617 13.5314 7.6005C13.3777 7.75467 13.3009 7.94342 13.3009 8.16675V16.5462C13.3009 16.7696 13.3795 16.9584 13.5369 17.1128C13.6942 17.2669 13.8854 17.344 14.1104 17.344Z"
            fill="black" />
    </symbol>

    <symbol id="Facebook" width="24" height="24" viewBox="0 0 24 24" fill="none">
        <path
            d="M22 12.3038C22 6.74719 17.5229 2.24268 12 2.24268C6.47715 2.24268 2 6.74719 2 12.3038C2 17.3255 5.65684 21.4879 10.4375 22.2427V15.2121H7.89844V12.3038H10.4375V10.0872C10.4375 7.56564 11.9305 6.1728 14.2146 6.1728C15.3088 6.1728 16.4531 6.36931 16.4531 6.36931V8.84529H15.1922C13.95 8.84529 13.5625 9.6209 13.5625 10.4166V12.3038H16.3359L15.8926 15.2121H13.5625V22.2427C18.3432 21.4879 22 17.3257 22 12.3038Z"
            fill="black" />
    </symbol>

    <symbol id="Instagram" width="24" height="24" viewBox="0 0 24 24" fill="none">
        <path fill-rule="evenodd" clip-rule="evenodd"
            d="M16 3.24268H8C5.23858 3.24268 3 5.48126 3 8.24268V16.2427C3 19.0041 5.23858 21.2427 8 21.2427H16C18.7614 21.2427 21 19.0041 21 16.2427V8.24268C21 5.48126 18.7614 3.24268 16 3.24268ZM19.25 16.2427C19.2445 18.0353 17.7926 19.4872 16 19.4927H8C6.20735 19.4872 4.75549 18.0353 4.75 16.2427V8.24268C4.75549 6.45003 6.20735 4.99817 8 4.99268H16C17.7926 4.99817 19.2445 6.45003 19.25 8.24268V16.2427ZM16.75 8.49268C17.3023 8.49268 17.75 8.04496 17.75 7.49268C17.75 6.9404 17.3023 6.49268 16.75 6.49268C16.1977 6.49268 15.75 6.9404 15.75 7.49268C15.75 8.04496 16.1977 8.49268 16.75 8.49268ZM12 7.74268C9.51472 7.74268 7.5 9.7574 7.5 12.2427C7.5 14.728 9.51472 16.7427 12 16.7427C14.4853 16.7427 16.5 14.728 16.5 12.2427C16.5027 11.0484 16.0294 9.90225 15.1849 9.05776C14.3404 8.21327 13.1943 7.74002 12 7.74268ZM9.25 12.2427C9.25 13.7615 10.4812 14.9927 12 14.9927C13.5188 14.9927 14.75 13.7615 14.75 12.2427C14.75 10.7239 13.5188 9.49268 12 9.49268C10.4812 9.49268 9.25 10.7239 9.25 12.2427Z"
            fill="black" />
    </symbol>

    <symbol id="keyboard_arrow_down" width="24" height="24" viewBox="0 0 24 24" fill="none">
        <path
            d="M7.08691 9.02344C7.18774 9.02344 7.26471 9.05385 7.34277 9.13184L11.6455 13.459L11.999 13.8145L16.6816 9.13184C16.7593 9.05424 16.8257 9.03227 16.9062 9.03516C17.0005 9.0386 17.0819 9.07117 17.168 9.15723C17.246 9.23531 17.2764 9.31223 17.2764 9.41309C17.2763 9.51371 17.2458 9.59001 17.168 9.66797L12.249 14.5869C12.1949 14.6411 12.1522 14.667 12.124 14.6787C12.0885 14.6935 12.0486 14.7021 12 14.7021C11.9755 14.7021 11.9532 14.6993 11.9326 14.6953L11.875 14.6787L11.8223 14.6484C11.8015 14.634 11.7779 14.6138 11.751 14.5869L6.80664 9.64355C6.7328 9.56972 6.70662 9.50009 6.70996 9.40527C6.71375 9.29797 6.74977 9.2141 6.83203 9.13184C6.90996 9.05403 6.98632 9.02351 7.08691 9.02344Z"
            fill="black" stroke="black" />
    </symbol>

    <symbol id="keyboard_arrow_up" width="24" height="24" viewBox="0 0 24 24" fill="none">
        <path
            d="M11.9995 8.7041C12.0934 8.7041 12.1694 8.73239 12.2495 8.8125L17.1929 13.7568C17.2749 13.8388 17.3013 13.9127 17.3013 14C17.3012 14.0872 17.2748 14.1612 17.1929 14.2432C17.1148 14.3212 17.0378 14.3516 16.937 14.3516C16.8364 14.3515 16.7601 14.321 16.6821 14.2432L16.6812 14.2422L12.3521 9.93848L11.9985 9.58691L7.31787 14.2676C7.24013 14.3453 7.1739 14.3672 7.09326 14.3643C6.999 14.3608 6.9176 14.3292 6.83154 14.2432C6.75343 14.165 6.72314 14.0882 6.72314 13.9873C6.72315 13.8864 6.75343 13.8096 6.83154 13.7314L11.7505 8.8125C11.8305 8.7325 11.9058 8.70418 11.9995 8.7041Z"
            fill="black" stroke="black" />
    </symbol>

    <symbol id="menu" width="24" height="24" viewBox="0 0 24 24" fill="none">
        <path
            d="M3.70234 18.2212C3.46184 18.2212 3.25975 18.139 3.09609 17.9745C2.93242 17.81 2.85059 17.6049 2.85059 17.3592C2.85059 17.1176 2.93242 16.9159 3.09609 16.7542C3.25975 16.5927 3.46184 16.512 3.70234 16.512H20.2978C20.5383 16.512 20.7414 16.5942 20.9071 16.7587C21.0728 16.9232 21.1556 17.1263 21.1556 17.368C21.1556 17.6137 21.0728 17.8172 20.9071 17.9787C20.7414 18.1404 20.5383 18.2212 20.2978 18.2212H3.70234ZM3.70234 12.8517C3.46184 12.8517 3.25975 12.7694 3.09609 12.6047C2.93242 12.4402 2.85059 12.2372 2.85059 11.9955C2.85059 11.754 2.93242 11.5524 3.09609 11.3907C3.25975 11.2291 3.46184 11.1482 3.70234 11.1482H20.2978C20.5383 11.1482 20.7414 11.2306 20.9071 11.3952C21.0728 11.5597 21.1556 11.7628 21.1556 12.0045C21.1556 12.246 21.0728 12.4476 20.9071 12.6092C20.7414 12.7709 20.5383 12.8517 20.2978 12.8517H3.70234ZM3.70234 7.488C3.46184 7.488 3.25975 7.40575 3.09609 7.24125C2.93242 7.07675 2.85059 6.87166 2.85059 6.626C2.85059 6.38433 2.93242 6.18275 3.09609 6.02125C3.25975 5.85958 3.46184 5.77875 3.70234 5.77875H20.2978C20.5383 5.77875 20.7414 5.861 20.9071 6.0255C21.0728 6.19 21.1556 6.39308 21.1556 6.63475C21.1556 6.88041 21.0728 7.08408 20.9071 7.24575C20.7414 7.40725 20.5383 7.488 20.2978 7.488H3.70234Z"
            fill="black" />
    </symbol>

    <symbol id="shopping_cart" width="24" height="24" viewBox="0 0 24 24" fill="none">
        <path
            d="M7.16997 22.0408C6.67347 22.0408 6.25022 21.864 5.90022 21.5105C5.55022 21.157 5.37522 20.732 5.37522 20.2355C5.37522 19.739 5.55197 19.3158 5.90547 18.9658C6.25897 18.6158 6.68397 18.4408 7.18047 18.4408C7.67697 18.4408 8.10022 18.6175 8.45022 18.971C8.80022 19.3247 8.97522 19.7497 8.97522 20.246C8.97522 20.7425 8.79847 21.1658 8.44497 21.5158C8.09147 21.8658 7.66647 22.0408 7.16997 22.0408ZM17.17 22.0408C16.6735 22.0408 16.2502 21.864 15.9002 21.5105C15.5502 21.157 15.3752 20.732 15.3752 20.2355C15.3752 19.739 15.552 19.3158 15.9055 18.9658C16.259 18.6158 16.684 18.4408 17.1805 18.4408C17.677 18.4408 18.1002 18.6175 18.4502 18.971C18.8002 19.3247 18.9752 19.7497 18.9752 20.246C18.9752 20.7425 18.7985 21.1658 18.445 21.5158C18.0915 21.8658 17.6665 22.0408 17.17 22.0408ZM5.98872 5.54077L8.63722 11.0375H15.8192L18.8247 5.54077H5.98872ZM5.16697 3.90927H19.7205C20.156 3.90927 20.4873 4.10618 20.7145 4.50002C20.9416 4.89385 20.9432 5.28968 20.7192 5.68752L17.446 11.5893C17.2546 11.9138 17.0087 12.1758 16.7082 12.3755C16.4079 12.5752 16.0752 12.675 15.7102 12.675H8.17797L6.81972 15.2093H18.2252C18.4564 15.2093 18.6501 15.2878 18.8065 15.4448C18.9628 15.6016 19.041 15.7961 19.041 16.0283C19.041 16.2603 18.9628 16.4537 18.8065 16.6085C18.6501 16.7633 18.4564 16.8408 18.2252 16.8408H6.92522C6.19339 16.8408 5.66731 16.5955 5.34697 16.105C5.02664 15.6143 5.03281 15.0674 5.36547 14.4643L6.94747 11.55L3.18347 3.56577H2.02522C1.79406 3.56577 1.60031 3.48727 1.44397 3.33027C1.28764 3.17343 1.20947 2.97893 1.20947 2.74677C1.20947 2.51477 1.28764 2.32135 1.44397 2.16651C1.60031 2.01168 1.79406 1.93427 2.02522 1.93427H3.70122C3.87122 1.93427 4.02539 1.97602 4.16372 2.05952C4.30206 2.14285 4.40281 2.26068 4.46597 2.41302L5.16697 3.90927Z"
            fill="black" />
    </symbol>

    <symbol id="star" width="24" height="24" viewBox="0 0 24 24" fill="none">
        <path
            d="M8.15882 17.7555L12.0001 15.4592L15.8413 17.7805L14.8093 13.432L18.1876 10.4917L13.7333 10.1037L12.0001 5.99948L10.2668 10.0847L5.81257 10.4667L9.19082 13.401L8.15882 17.7555ZM12.0001 17.4425L7.33807 20.2542C7.18091 20.3496 7.01732 20.3921 6.84732 20.3817C6.67749 20.3714 6.52624 20.3186 6.39357 20.2232C6.26091 20.1281 6.16241 20.0048 6.09807 19.8535C6.03391 19.7023 6.02041 19.5314 6.05757 19.3407L7.28857 14.0287L3.17682 10.4417C3.02749 10.3132 2.93632 10.1682 2.90332 10.0065C2.87032 9.84499 2.87449 9.68757 2.91582 9.53423C2.95316 9.3809 3.03916 9.25149 3.17382 9.14599C3.30832 9.04032 3.47091 8.97915 3.66157 8.96248L9.09832 8.48748L11.2043 3.46949C11.279 3.29565 11.392 3.16623 11.5433 3.08123C11.6945 2.99623 11.8467 2.95374 12.0001 2.95374C12.1534 2.95374 12.3057 2.99623 12.4568 3.08123C12.6082 3.16623 12.7212 3.29565 12.7958 3.46949L14.9018 8.48748L20.3446 8.96248C20.5312 8.97915 20.6918 9.04032 20.8263 9.14599C20.961 9.25149 21.047 9.3809 21.0843 9.53423C21.1257 9.68757 21.1298 9.84499 21.0968 10.0065C21.0638 10.1682 20.9727 10.3132 20.8233 10.4417L16.7116 14.0287L17.9426 19.3407C17.9797 19.5314 17.9662 19.7023 17.9021 19.8535C17.8377 20.0048 17.7392 20.1281 17.6066 20.2232C17.4739 20.3186 17.3227 20.3714 17.1528 20.3817C16.9828 20.3921 16.8192 20.3496 16.6621 20.2542L12.0001 17.4425Z"
            fill="black" />
    </symbol>

    <symbol id="star filled" width="24" height="24" viewBox="0 0 24 24" fill="none">
        <path
            d="M12.0001 17.4425L7.33807 20.2542C7.18091 20.3496 7.01732 20.3921 6.84732 20.3817C6.67749 20.3714 6.52624 20.3186 6.39357 20.2232C6.26091 20.1281 6.16241 20.0048 6.09807 19.8535C6.03391 19.7023 6.02041 19.5314 6.05757 19.3407L7.28857 14.0287L3.17682 10.4417C3.02749 10.3132 2.93632 10.1682 2.90332 10.0065C2.87032 9.84499 2.87449 9.68757 2.91582 9.53423C2.95316 9.3809 3.03916 9.25149 3.17382 9.14599C3.30832 9.04032 3.47091 8.97915 3.66157 8.96248L9.09832 8.48748L11.2043 3.46949C11.279 3.29565 11.392 3.16623 11.5433 3.08123C11.6945 2.99623 11.8467 2.95374 12.0001 2.95374C12.1534 2.95374 12.3057 2.99623 12.4568 3.08123C12.6082 3.16623 12.7212 3.29565 12.7958 3.46949L14.9018 8.48748L20.3446 8.96248C20.5312 8.97915 20.6918 9.04032 20.8263 9.14599C20.961 9.25149 21.047 9.3809 21.0843 9.53423C21.1257 9.68757 21.1298 9.84499 21.0968 10.0065C21.0638 10.1682 20.9727 10.3132 20.8233 10.4417L16.7116 14.0287L17.9426 19.3407C17.9797 19.5314 17.9662 19.7023 17.9021 19.8535C17.8377 20.0048 17.7392 20.1281 17.6066 20.2232C17.4739 20.3186 17.3227 20.3714 17.1528 20.3817C16.9828 20.3921 16.8192 20.3496 16.6621 20.2542L12.0001 17.4425Z"
            fill="black" />
    </symbol>

    <symbol id="star_half" width="24" height="24" viewBox="0 0 24 24" fill="none">
        <path
            d="M12.0001 5.99948V15.4592L15.8413 17.7805L14.8093 13.432L18.1876 10.4917L13.7333 10.1037L12.0001 5.99948ZM12.0001 17.4425L7.33807 20.2542C7.18091 20.3496 7.01732 20.3921 6.84732 20.3817C6.67749 20.3714 6.52624 20.3186 6.39357 20.2232C6.26091 20.1281 6.16241 20.0048 6.09807 19.8535C6.03391 19.7023 6.02041 19.5314 6.05757 19.3407L7.28857 14.0287L3.17682 10.4417C3.02749 10.3132 2.93632 10.1682 2.90332 10.0065C2.87032 9.84499 2.87449 9.68757 2.91582 9.53423C2.95316 9.3809 3.03916 9.25149 3.17382 9.14599C3.30832 9.04032 3.47091 8.97915 3.66157 8.96248L9.09832 8.48748L11.2043 3.46949C11.279 3.29565 11.392 3.16623 11.5433 3.08123C11.6945 2.99623 11.8467 2.95374 12.0001 2.95374C12.1534 2.95374 12.3057 2.99623 12.4568 3.08123C12.6082 3.16623 12.7212 3.29565 12.7958 3.46949L14.9018 8.48748L20.3446 8.96248C20.5312 8.97915 20.6918 9.04032 20.8263 9.14599C20.961 9.25149 21.047 9.3809 21.0843 9.53423C21.1257 9.68757 21.1298 9.84499 21.0968 10.0065C21.0638 10.1682 20.9727 10.3132 20.8233 10.4417L16.7116 14.0287L17.9426 19.3407C17.9797 19.5314 17.9662 19.7023 17.9021 19.8535C17.8377 20.0048 17.7392 20.1281 17.6066 20.2232C17.4739 20.3186 17.3227 20.3714 17.1528 20.3817C16.9828 20.3921 16.8192 20.3496 16.6621 20.2542L12.0001 17.4425Z"
            fill="black" />
    </symbol>

    <symbol id="X" width="24" height="24" viewBox="0 0 24 24" fill="none">
        <path
            d="M17.1761 4.24268H19.9362L13.9061 11.0201L21 20.2427H15.4456L11.0951 14.6493L6.11723 20.2427H3.35544L9.80517 12.9935L3 4.24268H8.69545L12.6279 9.3553L17.1761 4.24268ZM16.2073 18.6181H17.7368L7.86441 5.78196H6.2232L16.2073 18.6181Z"
            fill="black" />
    </symbol>

    <symbol id="Youtube" width="24" height="24" viewBox="0 0 24 24" fill="none">
        <path
            d="M21.5933 7.20301C21.4794 6.78041 21.2568 6.39501 20.9477 6.08518C20.6386 5.77534 20.2537 5.55187 19.8313 5.43701C18.2653 5.00701 12.0003 5.00001 12.0003 5.00001C12.0003 5.00001 5.73633 4.99301 4.16933 5.40401C3.74725 5.52415 3.36315 5.75078 3.0539 6.06214C2.74464 6.3735 2.52062 6.75913 2.40333 7.18201C1.99033 8.74801 1.98633 11.996 1.98633 11.996C1.98633 11.996 1.98233 15.26 2.39233 16.81C2.62233 17.667 3.29733 18.344 4.15533 18.575C5.73733 19.005 11.9853 19.012 11.9853 19.012C11.9853 19.012 18.2503 19.019 19.8163 18.609C20.2388 18.4943 20.6241 18.2714 20.934 17.9622C21.2439 17.653 21.4677 17.2682 21.5833 16.846C21.9973 15.281 22.0003 12.034 22.0003 12.034C22.0003 12.034 22.0203 8.76901 21.5933 7.20301ZM9.99633 15.005L10.0013 9.00501L15.2083 12.01L9.99633 15.005Z"
            fill="black" />
    </symbol>

    <symbol id="comment" width="16" height="16" viewBox="0 0 16 16" fill="none">
        <path
            d="M4.50022 9.3334H11.5002C11.6419 9.3334 11.7607 9.28518 11.8566 9.18874C11.9523 9.0924 12.0002 8.97296 12.0002 8.8304C12.0002 8.68796 11.9523 8.56951 11.8566 8.47507C11.7607 8.38063 11.6419 8.3334 11.5002 8.3334H4.50022C4.35855 8.3334 4.23983 8.38163 4.14405 8.47807C4.04816 8.5744 4.00022 8.69385 4.00022 8.8364C4.00022 8.97885 4.04816 9.09729 4.14405 9.19174C4.23983 9.28618 4.35855 9.3334 4.50022 9.3334ZM4.50022 7.16674H11.5002C11.6419 7.16674 11.7607 7.11851 11.8566 7.02207C11.9523 6.92574 12.0002 6.80629 12.0002 6.66374C12.0002 6.52129 11.9523 6.40285 11.8566 6.3084C11.7607 6.21396 11.6419 6.16674 11.5002 6.16674H4.50022C4.35855 6.16674 4.23983 6.21496 4.14405 6.3114C4.04816 6.40774 4.00022 6.52718 4.00022 6.66974C4.00022 6.81218 4.04816 6.93062 4.14405 7.02507C4.23983 7.11951 4.35855 7.16674 4.50022 7.16674ZM4.50022 5.00007H11.5002C11.6419 5.00007 11.7607 4.95185 11.8566 4.8554C11.9523 4.75907 12.0002 4.63963 12.0002 4.49707C12.0002 4.35462 11.9523 4.23618 11.8566 4.14174C11.7607 4.04729 11.6419 4.00007 11.5002 4.00007H4.50022C4.35855 4.00007 4.23983 4.04829 4.14405 4.14474C4.04816 4.24107 4.00022 4.36051 4.00022 4.50307C4.00022 4.64551 4.04816 4.76396 4.14405 4.8584C4.23983 4.95285 4.35855 5.00007 4.50022 5.00007ZM2.36939 12.0997C2.06272 12.0997 1.79683 11.9871 1.57172 11.7619C1.3465 11.5368 1.23389 11.2709 1.23389 10.9642V2.36924C1.23389 2.06146 1.3465 1.79462 1.57172 1.56874C1.79683 1.34274 2.06272 1.22974 2.36939 1.22974H13.6311C13.9388 1.22974 14.2057 1.34274 14.4316 1.56874C14.6576 1.79462 14.7706 2.06146 14.7706 2.36924V13.4029C14.7706 13.6516 14.6532 13.8242 14.4184 13.9209C14.1836 14.0177 13.9778 13.9763 13.8009 13.7967L12.1039 12.0997H2.36939ZM12.5372 10.9642L13.6311 12.1621V2.36924H2.36939V10.9642H12.5372Z"
            fill="black" />
    </symbol>

</svg>

