<svg aria-hidden="true" style="position: absolute; width: 0; height: 0; overflow: hidden;" version="1.1"
    xmlns="http://www.w3.org/2000/svg" xmlns:xlink="http://www.w3.org/1999/xlink">
    <defs>
        <symbol id="arrow_back" viewBox="0 0 32 32">
            <path stroke-linejoin="miter" stroke-linecap="butt" stroke-miterlimit="4" stroke-width="1.3333"
                d="M16.010 6.249c0.114 0 0.212 0.035 0.322 0.145 0.11 0.115 0.145 0.217 0.145 0.332-0 0.116-0.035 0.214-0.145 0.324l-8.482 8.482h17.88c0.162 0 0.262 0.047 0.348 0.132 0.083 0.082 0.129 0.177 0.129 0.337s-0.046 0.255-0.129 0.337c-0.085 0.084-0.186 0.131-0.348 0.132h-17.88l8.474 8.473c0.11 0.11 0.147 0.212 0.148 0.335v0.001c0.001 0.089-0.019 0.167-0.074 0.246l-0.069 0.082c-0.107 0.108-0.204 0.143-0.323 0.142-0.126-0.001-0.23-0.041-0.341-0.151l-9.264-9.264c-0.071-0.072-0.105-0.128-0.121-0.167v-0.001c-0.020-0.048-0.031-0.102-0.031-0.165s0.012-0.116 0.031-0.163v-0.001c0.016-0.038 0.050-0.095 0.121-0.167l9.267-9.267c0.121-0.116 0.227-0.152 0.342-0.152z">
            </path>
        </symbol>
        <symbol id="arrow_forward" viewBox="0 0 32 32">
            <path stroke-linejoin="miter" stroke-linecap="butt" stroke-miterlimit="4" stroke-width="1.3333"
                d="M15.993 6.253c0.095 0.001 0.177 0.023 0.259 0.081l0.082 0.070 9.264 9.264c0.071 0.072 0.105 0.128 0.121 0.167v0.001c0.020 0.048 0.031 0.102 0.031 0.165s-0.012 0.116-0.031 0.163v0.001c-0.016 0.038-0.050 0.094-0.121 0.167l-9.272 9.264c-0.122 0.12-0.227 0.155-0.337 0.155-0.108-0-0.204-0.033-0.315-0.147l-0.007-0.007-0.069-0.081c-0.056-0.079-0.075-0.157-0.075-0.243s0.020-0.163 0.075-0.242l0.069-0.081 8.482-8.482h-17.88c-0.163-0-0.259-0.047-0.34-0.128h-0.001c-0.081-0.081-0.128-0.179-0.128-0.341s0.046-0.26 0.128-0.341h0.001c0.081-0.081 0.177-0.127 0.34-0.128h17.88l-8.474-8.474c-0.082-0.082-0.124-0.16-0.141-0.246l-0.008-0.090c-0.001-0.12 0.034-0.218 0.141-0.326l0.001-0.001c0.107-0.107 0.205-0.143 0.324-0.142z">
            </path>
        </symbol>
        <symbol id="chevron_left" viewBox="0 0 32 32">
            <path stroke-linejoin="miter" stroke-linecap="butt" stroke-miterlimit="4" stroke-width="1.3333"
                d="M18.716 8.865c0.134 0 0.237 0.041 0.341 0.145s0.145 0.207 0.145 0.341-0.040 0.237-0.145 0.341l-6.276 6.276 6.276 6.275c0.104 0.104 0.133 0.193 0.129 0.301-0.005 0.125-0.047 0.233-0.161 0.348-0.104 0.104-0.207 0.146-0.341 0.146s-0.237-0.042-0.341-0.146l-6.592-6.591c-0.036-0.036-0.063-0.069-0.082-0.096l-0.039-0.070c-0.020-0.047-0.031-0.101-0.031-0.165 0-0.032 0.002-0.063 0.008-0.090l0.023-0.077c0.016-0.038 0.049-0.094 0.121-0.167l6.626-6.625c0.104-0.104 0.206-0.144 0.34-0.145z">
            </path>
        </symbol>
        <symbol id="chevron_right" viewBox="0 0 32 32">
            <path stroke-linejoin="miter" stroke-linecap="butt" stroke-miterlimit="4" stroke-width="1.3333"
                d="M12.516 8.897c0.134 0 0.237 0.041 0.341 0.145l6.592 6.592c0.072 0.072 0.105 0.128 0.121 0.165v0.001c0.020 0.047 0.031 0.1 0.031 0.165s-0.012 0.118-0.031 0.165v0.001c-0.016 0.037-0.049 0.093-0.121 0.165l-6.625 6.625c-0.104 0.104-0.193 0.133-0.301 0.129-0.125-0.005-0.233-0.047-0.348-0.161-0.104-0.104-0.146-0.207-0.146-0.341s0.042-0.237 0.146-0.341l6.242-6.242-6.276-6.276c-0.104-0.104-0.133-0.192-0.129-0.299 0.005-0.126 0.048-0.234 0.163-0.349 0.104-0.104 0.206-0.144 0.34-0.145z">
            </path>
        </symbol>
        <symbol id="close" viewBox="0 0 32 32">
            <path stroke-linejoin="miter" stroke-linecap="butt" stroke-miterlimit="4" stroke-width="1.3333"
                d="M23.466 7.9c0.219 0 0.355 0.065 0.462 0.172s0.172 0.242 0.172 0.461c0 0.219-0.065 0.355-0.172 0.462l-7.005 7.005 7.005 7.004c0.107 0.107 0.172 0.243 0.172 0.462s-0.065 0.355-0.172 0.462-0.243 0.172-0.462 0.172c-0.219-0-0.355-0.065-0.462-0.172l-7.004-7.005-7.005 7.005c-0.107 0.107-0.243 0.172-0.462 0.172s-0.354-0.065-0.461-0.172c-0.107-0.107-0.172-0.243-0.172-0.462s0.065-0.355 0.172-0.462l7.004-7.004-7.004-7.005c-0.107-0.107-0.172-0.243-0.172-0.462s0.065-0.354 0.172-0.461 0.242-0.172 0.461-0.172c0.219 0 0.355 0.065 0.462 0.172l7.005 7.004 7.004-7.004c0.107-0.107 0.243-0.172 0.462-0.172z">
            </path>
        </symbol>
        <symbol id="comment" viewBox="0 0 32 32">
            <path
                d="M9 18.667h14c0.283 0 0.521-0.096 0.713-0.289s0.287-0.432 0.287-0.717c0-0.285-0.096-0.522-0.287-0.711s-0.429-0.283-0.713-0.283h-14c-0.283 0-0.521 0.096-0.712 0.289s-0.288 0.432-0.288 0.717c0 0.285 0.096 0.522 0.288 0.711s0.429 0.283 0.712 0.283zM9 14.333h14c0.283 0 0.521-0.096 0.713-0.289s0.287-0.432 0.287-0.717c0-0.285-0.096-0.522-0.287-0.711s-0.429-0.283-0.713-0.283h-14c-0.283 0-0.521 0.096-0.712 0.289s-0.288 0.432-0.288 0.717c0 0.285 0.096 0.522 0.288 0.711s0.429 0.283 0.712 0.283zM9 10h14c0.283 0 0.521-0.096 0.713-0.289s0.287-0.432 0.287-0.717c0-0.285-0.096-0.522-0.287-0.711s-0.429-0.283-0.713-0.283h-14c-0.283 0-0.521 0.096-0.712 0.289s-0.288 0.432-0.288 0.717c0 0.285 0.096 0.522 0.288 0.711s0.429 0.283 0.712 0.283zM4.739 24.199c-0.613 0-1.145-0.225-1.595-0.676s-0.676-0.982-0.676-1.595v-17.19c0-0.616 0.225-1.149 0.676-1.601s0.982-0.678 1.595-0.678h22.523c0.615 0 1.149 0.226 1.601 0.678s0.678 0.985 0.678 1.601v22.067c0 0.497-0.235 0.843-0.704 1.036s-0.881 0.111-1.235-0.248l-3.394-3.394h-19.469zM25.074 21.928l2.188 2.396v-19.586h-22.523v17.19h20.336z">
            </path>
        </symbol>
        <symbol id="delete" viewBox="0 0 32 32">
            <path
                d="M8.636 28.199c-0.632 0-1.17-0.221-1.614-0.663s-0.665-0.978-0.665-1.608v-18.865h-0.367c-0.321 0-0.59-0.11-0.808-0.329s-0.327-0.49-0.327-0.812c0-0.322 0.109-0.591 0.327-0.806s0.488-0.323 0.808-0.323h5.474c0-0.326 0.109-0.598 0.328-0.816s0.488-0.327 0.808-0.327h6.792c0.32 0 0.59 0.111 0.808 0.332s0.327 0.492 0.327 0.812h5.482c0.321 0 0.59 0.11 0.808 0.329s0.327 0.49 0.327 0.812c0 0.322-0.109 0.591-0.327 0.807s-0.488 0.323-0.808 0.323h-0.367v18.865c0 0.63-0.222 1.166-0.665 1.608s-0.981 0.663-1.614 0.663h-14.727zM23.363 7.064h-14.727v18.865h14.727v-18.865zM13.203 23.125c0.304 0 0.556-0.103 0.759-0.308s0.303-0.458 0.303-0.755v-11.173c0-0.298-0.103-0.549-0.31-0.755s-0.46-0.309-0.759-0.309c-0.306 0-0.56 0.103-0.763 0.309s-0.303 0.457-0.303 0.755v11.173c0 0.298 0.103 0.55 0.309 0.755s0.461 0.308 0.765 0.308zM18.814 23.125c0.3 0 0.552-0.103 0.757-0.308s0.307-0.458 0.307-0.755v-11.173c0-0.298-0.104-0.549-0.312-0.755s-0.463-0.309-0.764-0.309c-0.302 0-0.555 0.103-0.76 0.309s-0.307 0.457-0.307 0.755v11.173c0 0.298 0.105 0.55 0.315 0.755s0.465 0.308 0.765 0.308z">
            </path>
        </symbol>
        <symbol id="Facebook" viewBox="0 0 32 32">
            <path
                d="M29.333 16.405c0-7.409-5.969-13.415-13.333-13.415s-13.333 6.006-13.333 13.415c0 6.696 4.876 12.245 11.25 13.252v-9.374h-3.385v-3.878h3.385v-2.955c0-3.362 1.991-5.219 5.036-5.219 1.459 0 2.985 0.262 2.985 0.262v3.301h-1.681c-1.656 0-2.173 1.034-2.173 2.095v2.516h3.698l-0.591 3.878h-3.107v9.374c6.374-1.006 11.25-6.556 11.25-13.252z">
            </path>
        </symbol>
        <symbol id="keyboard_arrow_down" viewBox="0 0 32 32">
            <path stroke-linejoin="miter" stroke-linecap="butt" stroke-miterlimit="4" stroke-width="1.3333"
                d="M9.449 12.031c0.134 0 0.237 0.041 0.341 0.145l6.208 6.244 6.243-6.244c0.104-0.103 0.192-0.133 0.299-0.129 0.126 0.005 0.234 0.048 0.349 0.163 0.104 0.104 0.145 0.207 0.145 0.341s-0.041 0.236-0.145 0.34l-6.559 6.559c-0.072 0.072-0.129 0.107-0.167 0.122-0.047 0.020-0.101 0.031-0.165 0.031-0.033 0-0.062-0.004-0.090-0.009l-0.077-0.022-0.070-0.040c-0.028-0.019-0.059-0.046-0.095-0.082l-6.592-6.591c-0.098-0.098-0.133-0.191-0.129-0.318 0.005-0.143 0.053-0.255 0.163-0.365 0.104-0.104 0.206-0.144 0.34-0.145z">
            </path>
        </symbol>
        <symbol id="keyboard_arrow_up" viewBox="0 0 32 32">
            <path stroke-linejoin="miter" stroke-linecap="butt" stroke-miterlimit="4" stroke-width="1.3333"
                d="M15.999 11.605c0.125 0 0.227 0.038 0.333 0.145l6.591 6.592c0.109 0.109 0.145 0.208 0.145 0.324s-0.035 0.215-0.145 0.324c-0.104 0.104-0.207 0.145-0.341 0.145s-0.236-0.041-0.34-0.145l-0.001-0.001-6.244-6.207-6.241 6.241c-0.104 0.104-0.192 0.133-0.299 0.129-0.126-0.005-0.234-0.047-0.349-0.161-0.104-0.104-0.145-0.207-0.145-0.341s0.040-0.237 0.145-0.341l6.559-6.559c0.107-0.107 0.207-0.144 0.332-0.145z">
            </path>
        </symbol>
        <symbol id="menu" viewBox="0 0 32 32">
            <path
                d="M4.936 24.295c-0.321 0-0.59-0.11-0.808-0.329s-0.327-0.493-0.327-0.82c0-0.322 0.109-0.591 0.327-0.807s0.488-0.323 0.808-0.323h22.127c0.321 0 0.591 0.11 0.812 0.329s0.331 0.49 0.331 0.812c0 0.328-0.11 0.599-0.331 0.814s-0.492 0.323-0.812 0.323h-22.127zM4.936 17.136c-0.321 0-0.59-0.11-0.808-0.329s-0.327-0.49-0.327-0.812c0-0.322 0.109-0.591 0.327-0.806s0.488-0.323 0.808-0.323h22.127c0.321 0 0.591 0.11 0.812 0.329s0.331 0.49 0.331 0.812c0 0.322-0.11 0.591-0.331 0.806s-0.492 0.323-0.812 0.323h-22.127zM4.936 9.984c-0.321 0-0.59-0.11-0.808-0.329s-0.327-0.493-0.327-0.82c0-0.322 0.109-0.591 0.327-0.806s0.488-0.323 0.808-0.323h22.127c0.321 0 0.591 0.11 0.812 0.329s0.331 0.49 0.331 0.812c0 0.328-0.11 0.599-0.331 0.815s-0.492 0.323-0.812 0.323h-22.127z">
            </path>
        </symbol>
        <symbol id="shopping_cart" viewBox="0 0 32 32">
            <path
                d="M9.56 29.388c-0.662 0-1.226-0.236-1.693-0.707s-0.7-1.038-0.7-1.7c0-0.662 0.236-1.226 0.707-1.693s1.038-0.7 1.7-0.7c0.662 0 1.226 0.236 1.693 0.707s0.7 1.038 0.7 1.7c0 0.662-0.236 1.226-0.707 1.693s-1.038 0.7-1.7 0.7zM22.893 29.388c-0.662 0-1.226-0.236-1.693-0.707s-0.7-1.038-0.7-1.7c0-0.662 0.236-1.226 0.707-1.693s1.038-0.7 1.7-0.7c0.662 0 1.226 0.236 1.693 0.707s0.7 1.038 0.7 1.7c0 0.662-0.236 1.226-0.707 1.693s-1.038 0.7-1.7 0.7zM7.985 7.388l3.531 7.329h9.576l4.007-7.329h-17.115zM6.889 5.212h19.405c0.581 0 1.022 0.263 1.325 0.788s0.305 1.053 0.006 1.583l-4.364 7.869c-0.255 0.433-0.583 0.782-0.984 1.048s-0.844 0.399-1.331 0.399h-10.043l-1.811 3.379h15.207c0.308 0 0.567 0.105 0.775 0.314s0.313 0.468 0.313 0.778c0 0.309-0.104 0.567-0.313 0.774s-0.467 0.31-0.775 0.31h-15.067c-0.976 0-1.677-0.327-2.104-0.981s-0.419-1.383 0.025-2.188l2.109-3.886-5.019-10.646h-1.544c-0.308 0-0.567-0.105-0.775-0.314s-0.313-0.468-0.313-0.778c0-0.309 0.104-0.567 0.313-0.774s0.467-0.31 0.775-0.31h2.235c0.227 0 0.432 0.056 0.617 0.167s0.319 0.268 0.403 0.471l0.935 1.995z">
            </path>
        </symbol>
        <symbol id="star" viewBox="0 0 32 32">
            <path
                d="M10.878 23.674l5.122-3.062 5.122 3.095-1.376-5.798 4.504-3.92-5.939-0.517-2.311-5.472-2.311 5.447-5.939 0.509 4.504 3.912-1.376 5.806zM16 23.257l-6.216 3.749c-0.21 0.127-0.428 0.184-0.654 0.17s-0.428-0.084-0.605-0.211c-0.177-0.127-0.308-0.291-0.394-0.493s-0.104-0.429-0.054-0.684l1.641-7.083-5.482-4.783c-0.199-0.171-0.321-0.365-0.365-0.58s-0.038-0.425 0.017-0.63c0.050-0.204 0.164-0.377 0.344-0.518s0.396-0.222 0.65-0.245l7.249-0.633 2.808-6.691c0.1-0.232 0.25-0.404 0.452-0.518s0.405-0.17 0.609-0.17c0.204 0 0.407 0.057 0.609 0.17s0.353 0.286 0.452 0.518l2.808 6.691 7.257 0.633c0.249 0.022 0.463 0.104 0.642 0.245s0.294 0.313 0.344 0.518c0.055 0.204 0.061 0.414 0.017 0.63s-0.165 0.409-0.365 0.58l-5.482 4.783 1.641 7.083c0.049 0.254 0.031 0.482-0.054 0.684s-0.217 0.366-0.394 0.493c-0.177 0.127-0.379 0.198-0.605 0.211s-0.445-0.043-0.654-0.17l-6.216-3.749z">
            </path>
        </symbol>
        <symbol id="star_filled" viewBox="0 0 32 32">
            <path
                d="M16 23.257l-6.216 3.749c-0.21 0.127-0.428 0.184-0.654 0.17s-0.428-0.084-0.605-0.211c-0.177-0.127-0.308-0.291-0.394-0.493s-0.104-0.429-0.054-0.684l1.641-7.083-5.482-4.783c-0.199-0.171-0.321-0.365-0.365-0.58s-0.038-0.425 0.017-0.63c0.050-0.204 0.164-0.377 0.344-0.518s0.396-0.222 0.65-0.245l7.249-0.633 2.808-6.691c0.1-0.232 0.25-0.404 0.452-0.518s0.405-0.17 0.609-0.17c0.204 0 0.407 0.057 0.609 0.17s0.353 0.286 0.452 0.518l2.808 6.691 7.257 0.633c0.249 0.022 0.463 0.104 0.642 0.245s0.294 0.313 0.344 0.518c0.055 0.204 0.061 0.414 0.017 0.63s-0.165 0.409-0.365 0.58l-5.482 4.783 1.641 7.083c0.049 0.254 0.031 0.482-0.054 0.684s-0.217 0.366-0.394 0.493c-0.177 0.127-0.379 0.198-0.605 0.211s-0.445-0.043-0.654-0.17l-6.216-3.749z">
            </path>
        </symbol>
        <symbol id="star_half" viewBox="0 0 32 32">
            <path
                d="M16 7.999v12.613l5.122 3.095-1.376-5.798 4.504-3.92-5.939-0.517-2.311-5.472zM16 23.257l-6.216 3.749c-0.21 0.127-0.428 0.184-0.654 0.17s-0.428-0.084-0.605-0.211c-0.177-0.127-0.308-0.291-0.394-0.493s-0.104-0.429-0.054-0.684l1.641-7.083-5.482-4.783c-0.199-0.171-0.321-0.365-0.365-0.58s-0.038-0.425 0.017-0.63c0.050-0.204 0.164-0.377 0.344-0.518s0.396-0.222 0.65-0.245l7.249-0.633 2.808-6.691c0.1-0.232 0.25-0.404 0.452-0.518s0.405-0.17 0.609-0.17c0.204 0 0.407 0.057 0.609 0.17s0.353 0.286 0.452 0.518l2.808 6.691 7.257 0.633c0.249 0.022 0.463 0.104 0.642 0.245s0.294 0.313 0.344 0.518c0.055 0.204 0.061 0.414 0.017 0.63s-0.165 0.409-0.365 0.58l-5.482 4.783 1.641 7.083c0.049 0.254 0.031 0.482-0.054 0.684s-0.217 0.366-0.394 0.493c-0.177 0.127-0.379 0.198-0.605 0.211s-0.445-0.043-0.654-0.17l-6.216-3.749z">
            </path>
        </symbol>
        <symbol id="X" viewBox="0 0 32 32">
            <path
                d="M22.901 5.657h3.68l-8.040 9.037 9.459 12.297h-7.406l-5.801-7.458-6.637 7.458h-3.682l8.6-9.666-9.074-11.668h7.594l5.243 6.817 6.064-6.817zM21.61 24.824h2.039l-13.163-17.115h-2.188l13.312 17.115z">
            </path>
        </symbol>
        <symbol id="Youtube" viewBox="0 0 32 32">
            <path
                d="M28.791 9.604c-0.152-0.563-0.449-1.077-0.861-1.49s-0.925-0.711-1.489-0.864c-2.088-0.573-10.441-0.583-10.441-0.583s-8.352-0.009-10.441 0.539c-0.563 0.16-1.075 0.462-1.487 0.878s-0.711 0.929-0.867 1.493c-0.551 2.088-0.556 6.419-0.556 6.419s-0.005 4.352 0.541 6.419c0.307 1.143 1.207 2.045 2.351 2.353 2.109 0.573 10.44 0.583 10.44 0.583s8.353 0.009 10.441-0.537c0.563-0.153 1.077-0.45 1.49-0.862s0.712-0.925 0.866-1.488c0.552-2.087 0.556-6.416 0.556-6.416s0.027-4.353-0.543-6.441zM13.328 20.007l0.007-8 6.943 4.007-6.949 3.993z">
            </path>
        </symbol>
        <symbol id="Instagram" viewBox="0 0 32 32">
            <path
                d="M16 3.24268H8C5.23858 3.24268 3 5.48126 3 8.24268V16.2427C3 19.0041 5.23858 21.2427 8 21.2427H16C18.7614 21.2427 21 19.0041 21 16.2427V8.24268C21 5.48126 18.7614 3.24268 16 3.24268ZM19.25 16.2427C19.2445 18.0353 17.7926 19.4872 16 19.4927H8C6.20735 19.4872 4.75549 18.0353 4.75 16.2427V8.24268C4.75549 6.45003 6.20735 4.99817 8 4.99268H16C17.7926 4.99817 19.2445 6.45003 19.25 8.24268V16.2427ZM16.75 8.49268C17.3023 8.49268 17.75 8.04496 17.75 7.49268C17.75 6.9404 17.3023 6.49268 16.75 6.49268C16.1977 6.49268 15.75 6.9404 15.75 7.49268C15.75 8.04496 16.1977 8.49268 16.75 8.49268ZM12 7.74268C9.51472 7.74268 7.5 9.7574 7.5 12.2427C7.5 14.728 9.51472 16.7427 12 16.7427C14.4853 16.7427 16.5 14.728 16.5 12.2427C16.5027 11.0484 16.0294 9.90225 15.1849 9.05776C14.3404 8.21327 13.1943 7.74002 12 7.74268ZM9.25 12.2427C9.25 13.7615 10.4812 14.9927 12 14.9927C13.5188 14.9927 14.75 13.7615 14.75 12.2427C14.75 10.7239 13.5188 9.49268 12 9.49268C10.4812 9.49268 9.25 10.7239 9.25 12.2427Z">
            </path>
        </symbol>>

    </defs>
</svg>