<svg aria-hidden="true" style="position: absolute; width: 0; height: 0; overflow: hidden;" version="1.1" xmlns="http://www.w3.org/2000/svg" xmlns:xlink="http://www.w3.org/1999/xlink">
<defs>
<symbol id="icon-Vector" viewBox="0 0 32 32">
<path stroke-linejoin="miter" stroke-linecap="butt" stroke-miterlimit="4" stroke-width="2.2857" d="M27.828 1.143c0.376 0 0.609 0.111 0.792 0.295s0.294 0.416 0.295 0.79c0 0.375-0.111 0.609-0.295 0.792l-12.009 12.009 12.009 12.007c0.184 0.184 0.295 0.417 0.295 0.792s-0.111 0.609-0.295 0.792-0.417 0.295-0.792 0.295c-0.375 0-0.609-0.111-0.792-0.295l-12.007-12.009-12.009 12.009c-0.184 0.184-0.417 0.295-0.792 0.295s-0.607-0.111-0.79-0.295c-0.184-0.184-0.295-0.417-0.295-0.792s0.111-0.609 0.295-0.792l12.007-12.007-12.007-12.009c-0.184-0.184-0.295-0.417-0.295-0.792s0.111-0.607 0.295-0.79 0.415-0.294 0.79-0.295c0.375 0 0.609 0.111 0.792 0.295l12.009 12.007 12.007-12.007c0.184-0.184 0.417-0.295 0.792-0.295z"></path>
</symbol>
<symbol id="icon-menu" viewBox="0 0 32 32">
<path d="M4.936 24.295c-0.321 0-0.59-0.11-0.808-0.329s-0.327-0.493-0.327-0.82c0-0.322 0.109-0.591 0.327-0.807s0.488-0.323 0.808-0.323h22.127c0.321 0 0.591 0.11 0.812 0.329s0.331 0.49 0.331 0.812c0 0.327-0.11 0.599-0.331 0.814s-0.492 0.323-0.812 0.323h-22.127zM4.936 17.136c-0.321 0-0.59-0.11-0.808-0.329s-0.327-0.49-0.327-0.812c0-0.322 0.109-0.591 0.327-0.806s0.488-0.323 0.808-0.323h22.127c0.321 0 0.591 0.11 0.812 0.329s0.331 0.49 0.331 0.812c0 0.322-0.11 0.591-0.331 0.806s-0.492 0.323-0.812 0.323h-22.127zM4.936 9.984c-0.321 0-0.59-0.11-0.808-0.329s-0.327-0.493-0.327-0.82c0-0.322 0.109-0.591 0.327-0.806s0.488-0.323 0.808-0.323h22.127c0.321 0 0.591 0.11 0.812 0.329s0.331 0.49 0.331 0.812c0 0.328-0.11 0.599-0.331 0.815s-0.492 0.323-0.812 0.323h-22.127z"></path>
</symbol>
<symbol id="icon-shopping_cart" viewBox="0 0 32 32">
<path fill="#fff" style="fill: var(--color1, #fff)" d="M9.56 29.388c-0.662 0-1.226-0.236-1.693-0.707s-0.7-1.038-0.7-1.7c0-0.662 0.236-1.226 0.707-1.693s1.038-0.7 1.7-0.7c0.662 0 1.226 0.236 1.693 0.707s0.7 1.038 0.7 1.7c0 0.662-0.236 1.226-0.707 1.693s-1.038 0.7-1.7 0.7zM22.893 29.388c-0.662 0-1.226-0.236-1.693-0.707s-0.7-1.038-0.7-1.7c0-0.662 0.236-1.226 0.707-1.693s1.038-0.7 1.7-0.7c0.662 0 1.226 0.236 1.693 0.707s0.7 1.038 0.7 1.7c0 0.662-0.236 1.226-0.707 1.693s-1.038 0.7-1.7 0.7zM7.985 7.388l3.531 7.329h9.576l4.007-7.329h-17.115zM6.889 5.212h19.405c0.581 0 1.022 0.263 1.325 0.788s0.305 1.053 0.006 1.583l-4.364 7.869c-0.255 0.433-0.583 0.782-0.984 1.048s-0.844 0.399-1.331 0.399h-10.043l-1.811 3.379h15.207c0.308 0 0.567 0.105 0.775 0.314s0.313 0.469 0.313 0.778c0 0.309-0.104 0.567-0.313 0.774s-0.467 0.31-0.775 0.31h-15.067c-0.976 0-1.677-0.327-2.104-0.981s-0.419-1.383 0.025-2.188l2.109-3.886-5.019-10.646h-1.544c-0.308 0-0.567-0.105-0.775-0.314s-0.313-0.468-0.313-0.778c0-0.309 0.104-0.567 0.313-0.774s0.467-0.31 0.775-0.31h2.235c0.227 0 0.432 0.056 0.617 0.167s0.319 0.268 0.403 0.471l0.935 1.995z"></path>
</symbol>
<symbol id="icon-Clothica-1"  viewBox="0 0 152 32">
<path d="M141.266 31.85c-1.461 0-2.777-0.278-3.946-0.833-1.14-0.584-2.046-1.374-2.718-2.367s-1.008-2.105-1.008-3.332c0-1.578 0.395-2.821 1.184-3.727 0.818-0.906 2.148-1.549 3.99-1.929 1.871-0.38 4.414-0.57 7.629-0.57h1.973v2.324h-1.929c-1.783 0-3.274 0.059-4.472 0.175s-2.148 0.322-2.85 0.614c-0.702 0.292-1.198 0.672-1.491 1.14s-0.439 1.052-0.439 1.754c0 1.198 0.409 2.177 1.228 2.938 0.848 0.76 1.988 1.14 3.42 1.14 1.169 0 2.192-0.278 3.069-0.833 0.906-0.555 1.608-1.315 2.104-2.28 0.526-0.965 0.789-2.075 0.789-3.332v-4.998c0-1.812-0.365-3.113-1.096-3.902-0.731-0.818-1.929-1.228-3.595-1.228-1.286 0-2.528 0.19-3.727 0.57-1.198 0.351-2.426 0.935-3.683 1.754l-1.228-2.587c0.76-0.526 1.622-0.979 2.587-1.359 0.965-0.409 1.973-0.716 3.025-0.921s2.061-0.307 3.025-0.307c1.841 0 3.361 0.307 4.56 0.921 1.198 0.585 2.090 1.491 2.674 2.718 0.585 1.198 0.877 2.748 0.877 4.648v13.416h-3.332v-4.955h0.395c-0.234 1.111-0.687 2.061-1.359 2.85-0.643 0.789-1.447 1.403-2.411 1.841s-2.046 0.658-3.244 0.658z"></path>
<path d="M123.904 31.85c-2.134 0-3.975-0.468-5.524-1.403s-2.748-2.236-3.595-3.902c-0.818-1.695-1.228-3.654-1.228-5.875 0-2.251 0.409-4.194 1.228-5.831 0.848-1.637 2.046-2.894 3.595-3.771s3.391-1.315 5.524-1.315c1.315 0 2.616 0.234 3.902 0.701s2.353 1.125 3.201 1.973l-1.227 2.587c-0.848-0.818-1.783-1.418-2.806-1.798-0.994-0.38-1.944-0.57-2.85-0.57-2.222 0-3.931 0.701-5.13 2.105-1.198 1.374-1.798 3.361-1.798 5.963 0 2.543 0.599 4.56 1.798 6.050 1.198 1.461 2.908 2.192 5.13 2.192 0.906 0 1.856-0.19 2.85-0.57 1.023-0.38 1.958-0.994 2.806-1.841l1.227 2.587c-0.848 0.848-1.929 1.52-3.244 2.017-1.286 0.468-2.572 0.702-3.858 0.702z"></path>
<path d="M104.682 4.842v-3.99h4.384v3.99h-4.384zM105.12 31.455v-21.308h3.551v21.308h-3.551z"></path>
<path d="M80.64 31.455v-30.91h3.551v14.337h-0.57c0.614-1.695 1.608-2.967 2.981-3.814 1.403-0.877 3.011-1.315 4.823-1.315 1.695 0 3.098 0.307 4.209 0.921 1.14 0.614 1.988 1.549 2.543 2.806 0.555 1.228 0.833 2.791 0.833 4.691v13.285h-3.551v-13.066c0-1.315-0.175-2.397-0.526-3.244-0.322-0.848-0.848-1.476-1.578-1.885-0.702-0.409-1.622-0.614-2.762-0.614-1.286 0-2.411 0.278-3.376 0.833s-1.71 1.33-2.236 2.324-0.789 2.163-0.789 3.507v12.145h-3.551z"></path>
<path d="M74.298 31.85c-2.514 0-4.399-0.672-5.656-2.017s-1.885-3.259-1.885-5.744v-11.18h-4.165v-2.762h4.165v-6.533h3.551v6.533h6.752v2.762h-6.752v10.829c0 1.666 0.351 2.938 1.052 3.815 0.702 0.848 1.841 1.271 3.42 1.271 0.468 0 0.935-0.058 1.403-0.175s0.891-0.234 1.272-0.351l0.614 2.718c-0.38 0.205-0.935 0.395-1.666 0.57s-1.432 0.263-2.104 0.263z"></path>
<path d="M50.898 31.85c-2.075 0-3.873-0.453-5.393-1.359s-2.704-2.177-3.551-3.814c-0.818-1.666-1.228-3.624-1.228-5.875s0.409-4.194 1.228-5.831c0.848-1.666 2.031-2.952 3.551-3.858s3.317-1.359 5.393-1.359c2.075 0 3.873 0.453 5.393 1.359s2.689 2.192 3.508 3.858c0.848 1.637 1.271 3.581 1.271 5.831s-0.424 4.209-1.271 5.875c-0.818 1.637-1.988 2.908-3.508 3.814s-3.318 1.359-5.393 1.359zM50.898 29c2.017 0 3.61-0.702 4.779-2.104 1.198-1.432 1.798-3.478 1.798-6.138 0-2.631-0.599-4.648-1.798-6.051-1.169-1.403-2.762-2.105-4.779-2.105-1.988 0-3.581 0.701-4.779 2.105s-1.798 3.42-1.798 6.051c0 2.66 0.599 4.706 1.798 6.138 1.198 1.403 2.791 2.104 4.779 2.104z"></path>
<path d="M36.251 31.85c-2.163 0-3.8-0.643-4.91-1.929-1.081-1.286-1.622-3.128-1.622-5.524v-23.851h3.551v23.588c0 1.023 0.131 1.885 0.395 2.587 0.292 0.702 0.716 1.228 1.272 1.578s1.242 0.526 2.061 0.526c0.351 0 0.687-0.015 1.008-0.044 0.351-0.058 0.672-0.131 0.965-0.219l-0.088 2.981c-0.468 0.088-0.921 0.161-1.359 0.219-0.409 0.059-0.833 0.088-1.272 0.088z"></path>
<path d="M14.512 31.699c-3.040 0-5.641-0.643-7.804-1.929s-3.829-3.113-4.998-5.48c-1.14-2.368-1.71-5.188-1.71-8.462s0.57-6.080 1.71-8.418c1.169-2.368 2.835-4.194 4.998-5.481s4.764-1.929 7.804-1.929c2.134 0 4.107 0.336 5.919 1.008s3.332 1.651 4.56 2.938l-1.403 2.938c-1.345-1.257-2.747-2.163-4.209-2.718-1.432-0.585-3.025-0.877-4.779-0.877-3.478 0-6.138 1.096-7.98 3.288s-2.762 5.276-2.762 9.251c0 3.975 0.921 7.074 2.762 9.295 1.841 2.192 4.501 3.288 7.98 3.288 1.754 0 3.347-0.278 4.779-0.833 1.461-0.585 2.864-1.505 4.209-2.762l1.403 2.938c-1.228 1.257-2.748 2.236-4.56 2.938-1.812 0.672-3.785 1.008-5.919 1.008z"></path>
</symbol>
</defs>
</svg>
