<svg aria-hidden="true" style="position: absolute; width: 0; height: 0; overflow: hidden;" version="1.1" xmlns="http://www.w3.org/2000/svg" xmlns:xlink="http://www.w3.org/1999/xlink">
<defs>
<symbol id="icon-Vector" viewBox="0 0 32 32">
<path stroke-linejoin="miter" stroke-linecap="butt" stroke-miterlimit="4" stroke-width="2.2857" d="M27.828 1.143c0.376 0 0.609 0.111 0.792 0.295s0.294 0.416 0.295 0.79c0 0.375-0.111 0.609-0.295 0.792l-12.009 12.009 12.009 12.007c0.184 0.184 0.295 0.417 0.295 0.792s-0.111 0.609-0.295 0.792-0.417 0.295-0.792 0.295c-0.375 0-0.609-0.111-0.792-0.295l-12.007-12.009-12.009 12.009c-0.184 0.184-0.417 0.295-0.792 0.295s-0.607-0.111-0.79-0.295c-0.184-0.184-0.295-0.417-0.295-0.792s0.111-0.609 0.295-0.792l12.007-12.007-12.007-12.009c-0.184-0.184-0.295-0.417-0.295-0.792s0.111-0.607 0.295-0.79 0.415-0.294 0.79-0.295c0.375 0 0.609 0.111 0.792 0.295l12.009 12.007 12.007-12.007c0.184-0.184 0.417-0.295 0.792-0.295z"></path>
</symbol>
<symbol id="icon-menu" viewBox="0 0 32 32">
<path d="M4.936 24.295c-0.321 0-0.59-0.11-0.808-0.329s-0.327-0.493-0.327-0.82c0-0.322 0.109-0.591 0.327-0.807s0.488-0.323 0.808-0.323h22.127c0.321 0 0.591 0.11 0.812 0.329s0.331 0.49 0.331 0.812c0 0.327-0.11 0.599-0.331 0.814s-0.492 0.323-0.812 0.323h-22.127zM4.936 17.136c-0.321 0-0.59-0.11-0.808-0.329s-0.327-0.49-0.327-0.812c0-0.322 0.109-0.591 0.327-0.806s0.488-0.323 0.808-0.323h22.127c0.321 0 0.591 0.11 0.812 0.329s0.331 0.49 0.331 0.812c0 0.322-0.11 0.591-0.331 0.806s-0.492 0.323-0.812 0.323h-22.127zM4.936 9.984c-0.321 0-0.59-0.11-0.808-0.329s-0.327-0.493-0.327-0.82c0-0.322 0.109-0.591 0.327-0.806s0.488-0.323 0.808-0.323h22.127c0.321 0 0.591 0.11 0.812 0.329s0.331 0.49 0.331 0.812c0 0.328-0.11 0.599-0.331 0.815s-0.492 0.323-0.812 0.323h-22.127z"></path>
</symbol>
<symbol id="icon-shopping_cart" viewBox="0 0 32 32">
<path fill="#fff" style="fill: var(--color1, #fff)" d="M9.56 29.388c-0.662 0-1.226-0.236-1.693-0.707s-0.7-1.038-0.7-1.7c0-0.662 0.236-1.226 0.707-1.693s1.038-0.7 1.7-0.7c0.662 0 1.226 0.236 1.693 0.707s0.7 1.038 0.7 1.7c0 0.662-0.236 1.226-0.707 1.693s-1.038 0.7-1.7 0.7zM22.893 29.388c-0.662 0-1.226-0.236-1.693-0.707s-0.7-1.038-0.7-1.7c0-0.662 0.236-1.226 0.707-1.693s1.038-0.7 1.7-0.7c0.662 0 1.226 0.236 1.693 0.707s0.7 1.038 0.7 1.7c0 0.662-0.236 1.226-0.707 1.693s-1.038 0.7-1.7 0.7zM7.985 7.388l3.531 7.329h9.576l4.007-7.329h-17.115zM6.889 5.212h19.405c0.581 0 1.022 0.263 1.325 0.788s0.305 1.053 0.006 1.583l-4.364 7.869c-0.255 0.433-0.583 0.782-0.984 1.048s-0.844 0.399-1.331 0.399h-10.043l-1.811 3.379h15.207c0.308 0 0.567 0.105 0.775 0.314s0.313 0.469 0.313 0.778c0 0.309-0.104 0.567-0.313 0.774s-0.467 0.31-0.775 0.31h-15.067c-0.976 0-1.677-0.327-2.104-0.981s-0.419-1.383 0.025-2.188l2.109-3.886-5.019-10.646h-1.544c-0.308 0-0.567-0.105-0.775-0.314s-0.313-0.468-0.313-0.778c0-0.309 0.104-0.567 0.313-0.774s0.467-0.31 0.775-0.31h2.235c0.227 0 0.432 0.056 0.617 0.167s0.319 0.268 0.403 0.471l0.935 1.995z"></path>
</symbol>
<symbol id="icon-Clothica-1"  viewBox="0 0 152 32">
<path d="M141.266 31.85c-1.461 0-2.777-0.278-3.946-0.833-1.14-0.584-2.046-1.374-2.718-2.367s-1.008-2.105-1.008-3.332c0-1.578 0.395-2.821 1.184-3.727 0.818-0.906 2.148-1.549 3.99-1.929 1.871-0.38 4.414-0.57 7.629-0.57h1.973v2.324h-1.929c-1.783 0-3.274 0.059-4.472 0.175s-2.148 0.322-2.85 0.614c-0.702 0.292-1.198 0.672-1.491 1.14s-0.439 1.052-0.439 1.754c0 1.198 0.409 2.177 1.228 2.938 0.848 0.76 1.988 1.14 3.42 1.14 1.169 0 2.192-0.278 3.069-0.833 0.906-0.555 1.608-1.315 2.104-2.28 0.526-0.965 0.789-2.075 0.789-3.332v-4.998c0-1.812-0.365-3.113-1.096-3.902-0.731-0.818-1.929-1.228-3.595-1.228-1.286 0-2.528 0.19-3.727 0.57-1.198 0.351-2.426 0.935-3.683 1.754l-1.228-2.587c0.76-0.526 1.622-0.979 2.587-1.359 0.965-0.409 1.973-0.716 3.025-0.921s2.061-0.307 3.025-0.307c1.841 0 3.361 0.307 4.56 0.921 1.198 0.585 2.090 1.491 2.674 2.718 0.585 1.198 0.877 2.748 0.877 4.648v13.416h-3.332v-4.955h0.395c-0.234 1.111-0.687 2.061-1.359 2.85-0.643 0.789-1.447 1.403-2.411 1.841s-2.046 0.658-3.244 0.658z"></path>
<path d="M123.904 31.85c-2.134 0-3.975-0.468-5.524-1.403s-2.748-2.236-3.595-3.902c-0.818-1.695-1.228-3.654-1.228-5.875 0-2.251 0.409-4.194 1.228-5.831 0.848-1.637 2.046-2.894 3.595-3.771s3.391-1.315 5.524-1.315c1.315 0 2.616 0.234 3.902 0.701s2.353 1.125 3.201 1.973l-1.227 2.587c-0.848-0.818-1.783-1.418-2.806-1.798-0.994-0.38-1.944-0.57-2.85-0.57-2.222 0-3.931 0.701-5.13 2.105-1.198 1.374-1.798 3.361-1.798 5.963 0 2.543 0.599 4.56 1.798 6.050 1.198 1.461 2.908 2.192 5.13 2.192 0.906 0 1.856-0.19 2.85-0.57 1.023-0.38 1.958-0.994 2.806-1.841l1.227 2.587c-0.848 0.848-1.929 1.52-3.244 2.017-1.286 0.468-2.572 0.702-3.858 0.702z"></path>
<path d="M104.682 4.842v-3.99h4.384v3.99h-4.384zM105.12 31.455v-21.308h3.551v21.308h-3.551z"></path>
<path d="M80.64 31.455v-30.91h3.551v14.337h-0.57c0.614-1.695 1.608-2.967 2.981-3.814 1.403-0.877 3.011-1.315 4.823-1.315 1.695 0 3.098 0.307 4.209 0.921 1.14 0.614 1.988 1.549 2.543 2.806 0.555 1.228 0.833 2.791 0.833 4.691v13.285h-3.551v-13.066c0-1.315-0.175-2.397-0.526-3.244-0.322-0.848-0.848-1.476-1.578-1.885-0.702-0.409-1.622-0.614-2.762-0.614-1.286 0-2.411 0.278-3.376 0.833s-1.71 1.33-2.236 2.324-0.789 2.163-0.789 3.507v12.145h-3.551z"></path>
<path d="M74.298 31.85c-2.514 0-4.399-0.672-5.656-2.017s-1.885-3.259-1.885-5.744v-11.18h-4.165v-2.762h4.165v-6.533h3.551v6.533h6.752v2.762h-6.752v10.829c0 1.666 0.351 2.938 1.052 3.815 0.702 0.848 1.841 1.271 3.42 1.271 0.468 0 0.935-0.058 1.403-0.175s0.891-0.234 1.272-0.351l0.614 2.718c-0.38 0.205-0.935 0.395-1.666 0.57s-1.432 0.263-2.104 0.263z"></path>
<path d="M50.898 31.85c-2.075 0-3.873-0.453-5.393-1.359s-2.704-2.177-3.551-3.814c-0.818-1.666-1.228-3.624-1.228-5.875s0.409-4.194 1.228-5.831c0.848-1.666 2.031-2.952 3.551-3.858s3.317-1.359 5.393-1.359c2.075 0 3.873 0.453 5.393 1.359s2.689 2.192 3.508 3.858c0.848 1.637 1.271 3.581 1.271 5.831s-0.424 4.209-1.271 5.875c-0.818 1.637-1.988 2.908-3.508 3.814s-3.318 1.359-5.393 1.359zM50.898 29c2.017 0 3.61-0.702 4.779-2.104 1.198-1.432 1.798-3.478 1.798-6.138 0-2.631-0.599-4.648-1.798-6.051-1.169-1.403-2.762-2.105-4.779-2.105-1.988 0-3.581 0.701-4.779 2.105s-1.798 3.42-1.798 6.051c0 2.66 0.599 4.706 1.798 6.138 1.198 1.403 2.791 2.104 4.779 2.104z"></path>
<path d="M36.251 31.85c-2.163 0-3.8-0.643-4.91-1.929-1.081-1.286-1.622-3.128-1.622-5.524v-23.851h3.551v23.588c0 1.023 0.131 1.885 0.395 2.587 0.292 0.702 0.716 1.228 1.272 1.578s1.242 0.526 2.061 0.526c0.351 0 0.687-0.015 1.008-0.044 0.351-0.058 0.672-0.131 0.965-0.219l-0.088 2.981c-0.468 0.088-0.921 0.161-1.359 0.219-0.409 0.059-0.833 0.088-1.272 0.088z"></path>
<path d="M14.512 31.699c-3.040 0-5.641-0.643-7.804-1.929s-3.829-3.113-4.998-5.48c-1.14-2.368-1.71-5.188-1.71-8.462s0.57-6.080 1.71-8.418c1.169-2.368 2.835-4.194 4.998-5.481s4.764-1.929 7.804-1.929c2.134 0 4.107 0.336 5.919 1.008s3.332 1.651 4.56 2.938l-1.403 2.938c-1.345-1.257-2.747-2.163-4.209-2.718-1.432-0.585-3.025-0.877-4.779-0.877-3.478 0-6.138 1.096-7.98 3.288s-2.762 5.276-2.762 9.251c0 3.975 0.921 7.074 2.762 9.295 1.841 2.192 4.501 3.288 7.98 3.288 1.754 0 3.347-0.278 4.779-0.833 1.461-0.585 2.864-1.505 4.209-2.762l1.403 2.938c-1.228 1.257-2.748 2.236-4.56 2.938-1.812 0.672-3.785 1.008-5.919 1.008z"></path>
</symbol>
<symbol id="icon-shopping-cart" viewBox="0 0 30 32">
<path fill="#fff" style="fill: var(--color1, #fff)" d="M9.083 30.638c-0.757 0-1.402-0.269-1.935-0.808s-0.8-1.186-0.8-1.943 0.269-1.402 0.808-1.935c0.539-0.533 1.186-0.8 1.943-0.8s1.402 0.269 1.935 0.808c0.533 0.539 0.8 1.187 0.8 1.943s-0.269 1.401-0.808 1.935-1.186 0.8-1.943 0.8zM24.321 30.638c-0.757 0-1.401-0.269-1.935-0.808s-0.8-1.186-0.8-1.943 0.269-1.402 0.808-1.935c0.539-0.533 1.186-0.8 1.943-0.8s1.402 0.269 1.935 0.808c0.533 0.539 0.8 1.187 0.8 1.943s-0.269 1.401-0.808 1.935-1.186 0.8-1.943 0.8zM7.283 5.496l4.036 8.376h10.944l4.58-8.376h-19.56zM6.030 3.010h22.177c0.664 0 1.168 0.3 1.515 0.9s0.349 1.203 0.007 1.81l-4.988 8.993c-0.291 0.494-0.666 0.894-1.124 1.198s-0.965 0.457-1.521 0.457h-11.478l-2.070 3.862h17.38c0.352 0 0.647 0.12 0.886 0.359s0.357 0.535 0.357 0.889c0 0.354-0.119 0.648-0.357 0.884s-0.534 0.354-0.886 0.354h-17.219c-1.115 0-1.917-0.374-2.405-1.121s-0.479-1.581 0.028-2.5l2.411-4.441-5.736-12.166h-1.765c-0.352 0-0.647-0.12-0.886-0.359s-0.357-0.535-0.357-0.889c0-0.354 0.119-0.648 0.357-0.884s0.533-0.354 0.886-0.354h2.554c0.259 0 0.494 0.064 0.705 0.191s0.364 0.307 0.461 0.539l1.068 2.28z"></path>
</symbol>
<symbol id="icon-arrow-right" viewBox="0 0 32 32">
<path stroke-linejoin="miter" stroke-linecap="butt" stroke-miterlimit="4" stroke-width="2" d="M16.289 1c0.142 0.001 0.266 0.035 0.389 0.121l0.123 0.105 13.896 13.896c0.106 0.108 0.158 0.193 0.182 0.25v0.002c0.030 0.073 0.047 0.153 0.047 0.248s-0.017 0.173-0.047 0.244v0.002c-0.024 0.057-0.075 0.142-0.182 0.25l-13.908 13.896c-0.183 0.181-0.34 0.232-0.506 0.232-0.161-0-0.306-0.049-0.473-0.221l-0.010-0.010-0.104-0.121c-0.084-0.119-0.113-0.235-0.113-0.365s0.030-0.245 0.113-0.363l0.104-0.121 12.723-12.723h-26.82c-0.244-0-0.389-0.070-0.51-0.191h-0.002c-0.122-0.122-0.191-0.268-0.191-0.512s0.070-0.39 0.191-0.512h0.002c0.121-0.121 0.266-0.191 0.51-0.191h26.82l-12.711-12.711c-0.123-0.123-0.186-0.24-0.211-0.369l-0.012-0.135c-0.002-0.18 0.050-0.327 0.211-0.488l0.002-0.002c0.16-0.161 0.307-0.214 0.486-0.213z"></path>
</symbol>
<symbol id="icon-trash" viewBox="0 0 29 32">
<path d="M4.776 31.011c-0.799 0-1.478-0.279-2.038-0.837s-0.84-1.236-0.84-2.031v-23.829h-0.463c-0.405 0-0.745-0.139-1.021-0.416s-0.413-0.619-0.413-1.026c0-0.407 0.138-0.747 0.413-1.019s0.616-0.408 1.021-0.408h6.914c0-0.412 0.138-0.755 0.414-1.031s0.616-0.413 1.021-0.413h8.579c0.405 0 0.745 0.14 1.021 0.419s0.413 0.621 0.413 1.025h6.924c0.405 0 0.745 0.139 1.021 0.416s0.413 0.619 0.413 1.026c0 0.407-0.138 0.747-0.413 1.019s-0.616 0.408-1.021 0.408h-0.463v23.829c0 0.796-0.28 1.473-0.84 2.031s-1.24 0.837-2.038 0.837h-18.603zM23.379 4.313h-18.603v23.829h18.603v-23.829zM10.545 24.601c0.383 0 0.703-0.13 0.958-0.389s0.383-0.578 0.383-0.954v-14.113c0-0.376-0.131-0.694-0.392-0.954s-0.581-0.39-0.959-0.39c-0.387 0-0.708 0.13-0.963 0.39s-0.383 0.578-0.383 0.954v14.113c0 0.376 0.13 0.694 0.39 0.954s0.582 0.389 0.966 0.389zM17.632 24.601c0.379 0 0.697-0.13 0.956-0.389s0.388-0.578 0.388-0.954v-14.113c0-0.376-0.132-0.694-0.395-0.954s-0.585-0.39-0.965-0.39c-0.381 0-0.701 0.13-0.96 0.39s-0.388 0.578-0.388 0.954v14.113c0 0.376 0.133 0.694 0.397 0.954s0.587 0.389 0.966 0.389z"></path>
</symbol>
<symbol id="icon-arrow-light" viewBox="0 0 32 32">
<path stroke-linejoin="miter" stroke-linecap="butt" stroke-miterlimit="4" stroke-width="2" d="M15.643 1c0.171 0 0.318 0.053 0.482 0.217 0.165 0.172 0.217 0.326 0.217 0.498-0 0.174-0.053 0.322-0.217 0.486l-12.723 12.723h26.82c0.243 0 0.393 0.071 0.522 0.197 0.124 0.123 0.193 0.266 0.193 0.506s-0.069 0.383-0.193 0.506c-0.128 0.127-0.279 0.197-0.522 0.197h-26.82l12.711 12.709c0.165 0.165 0.221 0.319 0.223 0.502v0.002c0.001 0.133-0.028 0.25-0.111 0.369l-0.104 0.123c-0.16 0.162-0.306 0.214-0.484 0.213-0.189-0.002-0.346-0.062-0.512-0.227l-13.896-13.896c-0.106-0.108-0.158-0.193-0.182-0.25v-0.002c-0.030-0.073-0.047-0.153-0.047-0.248s0.017-0.173 0.047-0.244v-0.002c0.024-0.057 0.075-0.142 0.182-0.25l13.9-13.9c0.181-0.174 0.34-0.229 0.514-0.229z"></path>
</symbol>
<symbol id="icon-Star-Filled-" viewBox="0 0 34 32">
<path d="M16.211 5.415v16.817l6.829 4.127-1.835-7.731 6.006-5.227-7.919-0.69-3.081-7.296zM16.211 25.758l-8.288 4.999c-0.279 0.169-0.57 0.245-0.872 0.227s-0.571-0.112-0.807-0.282c-0.236-0.169-0.411-0.388-0.525-0.657s-0.138-0.572-0.072-0.911l2.188-9.444-7.31-6.377c-0.265-0.228-0.428-0.486-0.486-0.774s-0.051-0.567 0.022-0.84c0.066-0.273 0.219-0.503 0.459-0.69s0.528-0.297 0.867-0.326l9.665-0.844 3.744-8.921c0.133-0.309 0.334-0.539 0.603-0.69s0.539-0.227 0.812-0.227 0.543 0.076 0.812 0.227c0.269 0.151 0.47 0.381 0.603 0.69l3.744 8.921 9.676 0.844c0.332 0.030 0.617 0.138 0.857 0.326s0.392 0.418 0.459 0.69c0.073 0.273 0.081 0.552 0.022 0.84s-0.221 0.545-0.486 0.774l-7.31 6.377 2.188 9.444c0.066 0.339 0.042 0.643-0.072 0.911s-0.289 0.488-0.525 0.657c-0.236 0.169-0.505 0.263-0.807 0.282s-0.593-0.057-0.873-0.227l-8.288-4.999z"></path>
</symbol>
<symbol id="icon-Star-Filled-2" viewBox="0 0 34 32">
<path d="M16.211 25.758l-8.288 4.999c-0.279 0.169-0.57 0.245-0.872 0.227s-0.571-0.112-0.807-0.282c-0.236-0.169-0.411-0.388-0.525-0.657s-0.138-0.572-0.072-0.911l2.188-9.444-7.31-6.377c-0.265-0.228-0.428-0.486-0.486-0.774s-0.051-0.567 0.022-0.84c0.066-0.273 0.219-0.503 0.459-0.69s0.528-0.297 0.867-0.326l9.665-0.844 3.744-8.921c0.133-0.309 0.334-0.539 0.603-0.69s0.539-0.227 0.812-0.227 0.543 0.076 0.812 0.227c0.269 0.151 0.47 0.381 0.603 0.69l3.744 8.921 9.676 0.844c0.332 0.030 0.617 0.138 0.857 0.326s0.392 0.418 0.459 0.69c0.073 0.273 0.081 0.552 0.022 0.84s-0.221 0.545-0.486 0.774l-7.31 6.377 2.188 9.444c0.066 0.339 0.042 0.643-0.072 0.911s-0.289 0.488-0.525 0.657c-0.236 0.169-0.505 0.263-0.807 0.282s-0.593-0.057-0.873-0.227l-8.288-4.999z"></path>
</symbol>
<symbol id="icon-Star-Outline" viewBox="0 0 34 32">
<path d="M9.382 26.314l6.829-4.082 6.829 4.127-1.835-7.731 6.006-5.227-7.919-0.69-3.081-7.296-3.081 7.263-7.919 0.679 6.006 5.216-1.835 7.741zM16.211 25.758l-8.288 4.999c-0.279 0.169-0.57 0.245-0.872 0.227s-0.571-0.112-0.807-0.282c-0.236-0.169-0.411-0.388-0.525-0.657s-0.138-0.572-0.072-0.911l2.188-9.444-7.31-6.377c-0.265-0.228-0.428-0.486-0.486-0.774s-0.051-0.567 0.022-0.84c0.066-0.273 0.219-0.503 0.459-0.69s0.528-0.297 0.867-0.326l9.665-0.844 3.744-8.921c0.133-0.309 0.334-0.539 0.603-0.69s0.539-0.227 0.812-0.227 0.543 0.076 0.812 0.227c0.269 0.151 0.47 0.381 0.603 0.69l3.744 8.921 9.676 0.844c0.332 0.030 0.617 0.138 0.857 0.326s0.392 0.418 0.459 0.69c0.073 0.273 0.081 0.552 0.022 0.84s-0.221 0.545-0.486 0.774l-7.31 6.377 2.188 9.444c0.066 0.339 0.042 0.643-0.072 0.911s-0.289 0.488-0.525 0.657c-0.236 0.169-0.505 0.263-0.807 0.282s-0.593-0.057-0.873-0.227l-8.288-4.999z"></path>
</symbol>
<symbol id="icon-Chevron-Down" viewBox="0 0 55 32">
<path stroke-linejoin="miter" stroke-linecap="butt" stroke-miterlimit="4" stroke-width="4.5714" d="M4.009 2.286c0.461 0 0.813 0.139 1.17 0.496l21.286 21.406 21.406-21.406c0.355-0.355 0.659-0.455 1.027-0.442 0.431 0.016 0.803 0.165 1.196 0.558 0.357 0.357 0.496 0.709 0.496 1.17-0 0.46-0.139 0.809-0.496 1.165l-22.487 22.487c-0.248 0.248-0.443 0.366-0.571 0.42-0.162 0.068-0.345 0.107-0.567 0.107-0.112 0-0.214-0.013-0.308-0.031l-0.263-0.076-0.241-0.138c-0.095-0.066-0.203-0.158-0.326-0.281l-22.603-22.598c-0.338-0.338-0.457-0.656-0.442-1.089 0.017-0.491 0.182-0.874 0.558-1.25 0.356-0.356 0.705-0.495 1.165-0.496z"></path>
</symbol>
<symbol id="icon-Chevron-Up" viewBox="0 0 55 32">
<path stroke-linejoin="miter" stroke-linecap="butt" stroke-miterlimit="4" stroke-width="4.5714" d="M26.406 2.286c0.429 0 0.777 0.129 1.143 0.496l22.598 22.603c0.375 0.375 0.496 0.713 0.496 1.112s-0.121 0.737-0.496 1.112c-0.357 0.357-0.709 0.496-1.169 0.496s-0.809-0.14-1.165-0.496l-0.005-0.004-21.406-21.281-21.397 21.397c-0.355 0.355-0.658 0.455-1.027 0.442-0.431-0.016-0.803-0.16-1.196-0.554-0.357-0.357-0.496-0.708-0.496-1.17s0.138-0.813 0.496-1.17l22.487-22.487c0.366-0.366 0.71-0.495 1.138-0.496z"></path>
</symbol>
<symbol id="icon-Chevron-Right" viewBox="0 0 19 32">
<path stroke-linejoin="miter" stroke-linecap="butt" stroke-miterlimit="4" stroke-width="2.6667" d="M2.339 1.333c0.269 0 0.474 0.081 0.682 0.289l13.185 13.185c0.144 0.144 0.211 0.256 0.242 0.331v0.003c0.039 0.095 0.063 0.201 0.063 0.331s-0.023 0.236-0.063 0.331v0.003c-0.031 0.075-0.099 0.187-0.242 0.331l-13.25 13.25c-0.207 0.207-0.386 0.266-0.602 0.258-0.251-0.009-0.466-0.094-0.695-0.323-0.208-0.208-0.292-0.413-0.292-0.682s0.083-0.474 0.292-0.682l12.484-12.484-12.552-12.552c-0.207-0.207-0.266-0.384-0.258-0.599 0.009-0.251 0.096-0.468 0.326-0.698 0.208-0.208 0.411-0.289 0.68-0.289z"></path>
</symbol>
<symbol id="icon-Chevron-Left" viewBox="0 0 19 32">
<path stroke-linejoin="miter" stroke-linecap="butt" stroke-miterlimit="4" stroke-width="2.6667" d="M15.57 1.333c0.269 0 0.474 0.081 0.682 0.289s0.289 0.413 0.289 0.682-0.081 0.474-0.289 0.682l-12.552 12.552 12.552 12.549c0.207 0.207 0.266 0.386 0.258 0.602-0.009 0.251-0.094 0.466-0.323 0.695-0.208 0.208-0.413 0.292-0.682 0.292s-0.474-0.083-0.682-0.292l-13.185-13.182c-0.072-0.072-0.125-0.137-0.164-0.193l-0.078-0.141c-0.040-0.095-0.062-0.201-0.063-0.331 0-0.065 0.005-0.125 0.016-0.18l0.047-0.154c0.031-0.075 0.098-0.189 0.242-0.333l13.253-13.25c0.208-0.208 0.411-0.289 0.68-0.289z"></path>
</symbol>
<symbol id="icon-close" viewBox="0 0 32 32">
<path stroke-linejoin="miter" stroke-linecap="butt" stroke-miterlimit="4" stroke-width="2.2857" d="M27.828 1.143c0.376 0 0.609 0.111 0.792 0.295s0.294 0.416 0.295 0.79c0 0.375-0.111 0.609-0.295 0.792l-12.009 12.009 12.009 12.007c0.184 0.184 0.295 0.417 0.295 0.792s-0.111 0.609-0.295 0.792-0.417 0.295-0.792 0.295c-0.375 0-0.609-0.111-0.792-0.295l-12.007-12.009-12.009 12.009c-0.184 0.184-0.417 0.295-0.792 0.295s-0.607-0.111-0.79-0.295c-0.184-0.184-0.295-0.417-0.295-0.792s0.111-0.609 0.295-0.792l12.007-12.007-12.007-12.009c-0.184-0.184-0.295-0.417-0.295-0.792s0.111-0.607 0.295-0.79 0.415-0.294 0.79-0.295c0.375 0 0.609 0.111 0.792 0.295l12.009 12.007 12.007-12.007c0.184-0.184 0.417-0.295 0.792-0.295z"></path>
</symbol>
<symbol id="icon-youtube" viewBox="0 0 45 32">
<path d="M41.828 4.7c-0.243-0.902-0.718-1.724-1.377-2.385s-1.481-1.138-2.382-1.383c-3.341-0.917-16.706-0.932-16.706-0.932s-13.363-0.015-16.706 0.862c-0.9 0.256-1.72 0.74-2.38 1.404s-1.138 1.487-1.388 2.389c-0.881 3.341-0.89 10.27-0.89 10.27s-0.009 6.963 0.866 10.27c0.491 1.828 1.931 3.273 3.761 3.765 3.375 0.917 16.704 0.932 16.704 0.932s13.365 0.015 16.706-0.86c0.901-0.245 1.723-0.72 2.384-1.38s1.139-1.481 1.385-2.381c0.883-3.339 0.89-10.266 0.89-10.266s0.043-6.965-0.868-10.306zM17.088 21.344l0.011-12.8 11.108 6.411-11.119 6.389z"></path>
</symbol>
<symbol id="icon-sm" viewBox="0 0 36 32">
<path d="M28.352 0h5.52l-12.060 13.555 14.188 18.445h-11.109l-8.701-11.187-9.956 11.187h-5.524l12.899-14.498-13.61-17.502h11.391l7.865 10.225 9.096-10.225zM26.415 28.751h3.059l-19.745-25.672h-3.282l19.968 25.672z"></path>
</symbol>
<symbol id="icon-instagram" viewBox="0 0 32 32">
<path d="M23.111 0h-14.222c-4.909 0-8.889 3.98-8.889 8.889v14.222c0 4.909 3.98 8.889 8.889 8.889h14.222c4.909 0 8.889-3.98 8.889-8.889v-14.222c0-4.909-3.98-8.889-8.889-8.889zM28.889 23.111c-0.010 3.187-2.591 5.768-5.778 5.778h-14.222c-3.187-0.010-5.768-2.591-5.778-5.778v-14.222c0.010-3.187 2.591-5.768 5.778-5.778h14.222c3.187 0.010 5.768 2.591 5.778 5.778v14.222zM24.444 9.333c0.982 0 1.778-0.796 1.778-1.778s-0.796-1.778-1.778-1.778c-0.982 0-1.778 0.796-1.778 1.778s0.796 1.778 1.778 1.778zM16 8c-4.418 0-8 3.582-8 8s3.582 8 8 8c4.418 0 8-3.582 8-8 0.005-2.123-0.837-4.161-2.338-5.662s-3.539-2.343-5.662-2.338zM11.111 16c0 2.7 2.189 4.889 4.889 4.889s4.889-2.189 4.889-4.889c0-2.7-2.189-4.889-4.889-4.889s-4.889 2.189-4.889 4.889z"></path>
</symbol>
<symbol id="icon-facebook" viewBox="0 0 32 32">
<path d="M32 16.098c0-8.891-7.163-16.098-16-16.098s-16 7.207-16 16.098c0 8.035 5.851 14.695 13.5 15.902v-11.249h-4.063v-4.653h4.063v-3.547c0-4.035 2.389-6.263 6.043-6.263 1.751 0 3.582 0.314 3.582 0.314v3.962h-2.017c-1.988 0-2.608 1.241-2.608 2.514v3.020h4.437l-0.709 4.653h-3.728v11.249c7.649-1.208 13.5-7.867 13.5-15.902z"></path>
</symbol>
<symbol id="icon-comment" viewBox="0 0 32 32">
<path d="M9 18.667h14c0.283 0 0.521-0.096 0.713-0.289s0.287-0.432 0.287-0.717c0-0.285-0.096-0.522-0.287-0.711s-0.429-0.283-0.713-0.283h-14c-0.283 0-0.521 0.096-0.712 0.289s-0.288 0.432-0.288 0.717c0 0.285 0.096 0.522 0.288 0.711s0.429 0.283 0.712 0.283zM9 14.333h14c0.283 0 0.521-0.096 0.713-0.289s0.287-0.432 0.287-0.717c0-0.285-0.096-0.522-0.287-0.711s-0.429-0.283-0.713-0.283h-14c-0.283 0-0.521 0.096-0.712 0.289s-0.288 0.432-0.288 0.717c0 0.285 0.096 0.522 0.288 0.711s0.429 0.283 0.712 0.283zM9 10h14c0.283 0 0.521-0.096 0.713-0.289s0.287-0.432 0.287-0.717c0-0.285-0.096-0.522-0.287-0.711s-0.429-0.283-0.713-0.283h-14c-0.283 0-0.521 0.096-0.712 0.289s-0.288 0.432-0.288 0.717c0 0.285 0.096 0.522 0.288 0.711s0.429 0.283 0.712 0.283zM4.739 24.199c-0.613 0-1.145-0.225-1.595-0.676s-0.676-0.982-0.676-1.595v-17.19c0-0.616 0.225-1.149 0.676-1.601s0.982-0.678 1.595-0.678h22.523c0.615 0 1.149 0.226 1.601 0.678s0.678 0.985 0.678 1.601v22.067c0 0.497-0.235 0.843-0.704 1.036s-0.881 0.111-1.235-0.248l-3.394-3.394h-19.469zM25.074 21.928l2.188 2.396v-19.586h-22.523v17.19h20.336z"></path>
</symbol>
</defs>
</svg>

